<svg width="345" height="60" viewBox="0 0 345 60" fill="none" xmlns="http://www.w3.org/2000/svg">
<rect y="0.647949" width="345" height="59" rx="12" fill="#FEE500"/>
<g clip-path="url(#clip0_59_3948)">
<path fill-rule="evenodd" clip-rule="evenodd" d="M125.5 21.748C120.529 21.748 116.5 24.861 116.5 28.7003C116.5 31.0881 118.058 33.193 120.432 34.445L119.433 38.0925C119.345 38.4148 119.713 38.6717 119.996 38.485L124.373 35.5962C124.743 35.6319 125.118 35.6527 125.5 35.6527C130.47 35.6527 134.5 32.5399 134.5 28.7003C134.5 24.861 130.47 21.748 125.5 21.748Z" fill="black"/>
</g>
<path d="M148.35 24.4279H150.3C150.3 28.7179 149.28 32.2879 144.105 34.9129L143.04 33.3979C147.36 31.2229 148.35 28.5679 148.35 24.6679V24.4279ZM143.895 24.4279H149.535V26.0029H143.895V24.4279ZM148.395 27.8329V29.3629L143.415 29.8429L143.175 28.1329L148.395 27.8329ZM151.98 23.0779H153.99V36.9679H151.98V23.0779ZM153.465 28.3879H155.91V30.0229H153.465V28.3879ZM162.149 24.4279H164.099C164.099 28.7179 163.079 32.2879 157.904 34.9129L156.839 33.3979C161.159 31.2229 162.149 28.5679 162.149 24.6679V24.4279ZM157.694 24.4279H163.334V26.0029H157.694V24.4279ZM162.194 27.8329V29.3629L157.214 29.8429L156.974 28.1329L162.194 27.8329ZM165.779 23.0779H167.789V36.9679H165.779V23.0779ZM167.264 28.3879H169.709V30.0229H167.264V28.3879ZM175.978 30.9079H177.973V34.0729H175.978V30.9079ZM176.983 23.7979C179.953 23.7979 182.173 25.3129 182.173 27.6229C182.173 29.9629 179.953 31.4629 176.983 31.4629C174.013 31.4629 171.793 29.9629 171.793 27.6229C171.793 25.3129 174.013 23.7979 176.983 23.7979ZM176.983 25.3729C175.078 25.3729 173.758 26.2129 173.758 27.6229C173.758 29.0629 175.078 29.8879 176.983 29.8879C178.888 29.8879 180.208 29.0629 180.208 27.6229C180.208 26.2129 178.888 25.3729 176.983 25.3729ZM170.713 33.7579H183.283V35.3779H170.713V33.7579ZM187.514 33.8329H200.084V35.4529H187.514V33.8329ZM192.779 31.2079H194.774V34.4929H192.779V31.2079ZM188.924 23.9929H198.674V28.6129H190.934V30.9529H188.954V27.0529H196.694V25.5679H188.924V23.9929ZM188.954 30.1579H198.989V31.7629H188.954V30.1579ZM202.588 24.3679H211.393V25.9429H202.588V24.3679ZM201.313 33.5479H213.868V35.1679H201.313V33.5479ZM210.343 24.3679H212.323V26.0179C212.323 27.9679 212.323 29.8579 211.828 32.7079L209.833 32.5429C210.343 29.8729 210.343 27.8929 210.343 26.0179V24.3679ZM224.637 23.1079H226.647V33.0829H224.637V23.1079ZM217.392 35.1529H226.992V36.7429H217.392V35.1529ZM217.392 32.0779H219.387V35.7979H217.392V32.0779ZM219.087 23.9779C221.217 23.9779 222.852 25.4479 222.852 27.5029C222.852 29.5429 221.217 31.0279 219.087 31.0279C216.957 31.0279 215.307 29.5429 215.307 27.5029C215.307 25.4479 216.957 23.9779 219.087 23.9779ZM219.087 25.7029C218.052 25.7029 217.257 26.3629 217.257 27.5029C217.257 28.6279 218.052 29.2879 219.087 29.2879C220.107 29.2879 220.902 28.6279 220.902 27.5029C220.902 26.3629 220.107 25.7029 219.087 25.7029Z" fill="black" fill-opacity="0.85"/>
<defs>
<clipPath id="clip0_59_3948">
<rect width="17.9999" height="18" fill="white" transform="translate(116.5 21.1479)"/>
</clipPath>
</defs>
</svg>
